<svg width="130" height="130" viewBox="0 0 130 130" fill="none" xmlns="http://www.w3.org/2000/svg">
<path d="M118.284 0C111.976 0 105.667 0 99.3588 0C99.1335 0 98.9081 0 98.6828 0C98.5541 0 98.4254 0 98.2966 0C98.1679 0 98.0391 0 97.9104 0C97.7816 0 97.6529 0 97.5241 0C88.2867 0 79.0493 0 69.7797 0L64.1471 5.60456L58.0639 11.6601C58.0639 22.5149 58.0639 33.3375 58.0639 44.1923C58.0639 47.2522 57.0983 50.1189 55.4246 52.4381C55.3602 52.5347 55.2959 52.6313 55.2315 52.6957C55.1028 52.889 54.9418 53.0823 54.8131 53.2433C54.7487 53.3077 54.6843 53.4044 54.62 53.4688C54.4268 53.6943 54.2337 53.9197 54.0084 54.1452C53.9762 54.1774 53.9762 54.1774 53.944 54.2096C53.6866 54.4673 53.4291 54.6928 53.1716 54.9182C53.1394 54.9504 53.1394 54.9504 53.1072 54.9827C52.8819 55.1759 52.6244 55.4014 52.3669 55.5624C52.3347 55.5947 52.2704 55.6269 52.2382 55.6591C51.9807 55.8523 51.7232 56.0456 51.4335 56.2066C51.4013 56.2066 51.4013 56.2389 51.4013 56.2389C50.5001 56.8186 49.5024 57.3018 48.4402 57.6561C46.9275 58.1715 45.3182 58.4613 43.6445 58.4613C43.6445 58.4613 43.4835 58.4613 43.2904 58.4613C40.8765 58.4936 39.1384 58.4613 38.8165 58.4613C38.1406 58.4613 36.0163 58.4291 31.6068 58.4291C31.4781 58.4291 31.3493 58.4291 31.2206 58.4291C31.0919 58.4291 30.9631 58.4291 30.8344 58.4291C26.6502 58.4291 20.5026 58.4291 11.7158 58.4291L0 70.0892C0 86.162 0 102.235 0 118.34L11.7158 130C18.0886 130 24.4615 130 30.8344 130C30.9631 130 31.0919 130 31.2206 130C31.3493 130 31.4781 130 31.6068 130C41.1339 130 50.6611 130 60.1882 130L65.8207 124.395L71.9039 118.34C71.9039 107.485 71.9039 96.6625 71.9039 85.8077C71.9039 82.7478 72.8695 79.8811 74.5432 77.5619C74.6076 77.4653 74.672 77.3687 74.7363 77.3043C74.8651 77.111 75.026 76.9177 75.1547 76.7567C75.2191 76.6923 75.2835 76.5956 75.3479 76.5312C75.541 76.3057 75.7341 76.0803 75.9594 75.8548C75.9916 75.8226 75.9916 75.8226 76.0238 75.7904C76.2813 75.5327 76.5387 75.3072 76.7962 75.0818C76.8284 75.0496 76.8284 75.0496 76.8606 75.0173C77.0859 74.8241 77.3434 74.5986 77.6009 74.4376C77.6331 74.4053 77.6974 74.3731 77.7296 74.3409C77.9871 74.1477 78.2446 73.9544 78.5343 73.7934L78.5665 73.7611C79.4677 73.1814 80.4655 72.6982 81.5276 72.3439C83.0404 71.8285 84.6497 71.5387 86.3234 71.5387C86.3234 71.5387 86.4843 71.5387 86.6774 71.5387C89.0914 71.5064 90.8294 71.5387 91.1513 71.5387C91.795 71.5387 93.694 71.5709 97.5241 71.5709C97.6529 71.5709 97.7816 71.5709 97.9104 71.5709C98.0391 71.5709 98.1679 71.5709 98.2966 71.5709C98.7472 71.6031 99.1978 71.6031 99.6484 71.5709C103.8 71.5709 109.819 71.5709 118.284 71.5709L130 59.9108C130 43.838 130 27.7651 130 11.6601L118.284 0ZM118.316 59.8464C107.598 59.8464 96.8482 59.8464 86.1302 59.8464C80.6586 59.8786 75.6053 61.6179 71.4533 64.5491C71.389 64.5813 71.3246 64.6457 71.2924 64.6779C70.9062 64.9678 70.4877 65.2577 70.1015 65.5798C69.9728 65.6764 69.844 65.773 69.7153 65.8697C69.3612 66.1596 69.0072 66.4495 68.6853 66.7716C68.5888 66.8682 68.4922 66.9648 68.3635 67.0614C67.4944 67.8667 66.722 68.7364 65.9817 69.6705C65.9495 69.7027 65.9173 69.7349 65.8851 69.7993C65.692 70.0248 65.5311 70.2502 65.3701 70.5079C65.338 70.5723 65.3058 70.6046 65.2736 70.6368C62.1515 74.9207 60.3169 80.171 60.3169 85.8722C60.3169 96.6947 60.2847 107.517 60.2847 118.372C44.1273 118.372 27.9376 118.372 11.7801 118.372V70.1858C22.4981 70.1858 33.2161 70.1858 43.9663 70.1858C49.438 70.1536 54.4912 68.4143 58.6432 65.4832C58.7076 65.4509 58.772 65.3865 58.8042 65.3543C59.1904 65.0644 59.6088 64.7745 59.995 64.4524C60.1238 64.3558 60.2525 64.2592 60.3813 64.1625C60.7353 63.8726 61.0894 63.5828 61.4112 63.2607C61.5078 63.164 61.6044 63.0674 61.7331 62.9708C62.6021 62.1655 63.3746 61.2958 64.1149 60.3617C64.1471 60.3295 64.1793 60.2973 64.2114 60.2329C64.4046 60.0074 64.5655 59.782 64.7264 59.5243C64.7586 59.4599 64.7908 59.4277 64.823 59.3954C67.945 55.1115 69.7797 49.8613 69.7797 44.1601C69.7797 33.3375 69.8118 22.5149 69.8118 11.6601C85.9693 11.6601 102.159 11.6601 118.316 11.6601V59.8464Z" fill="black"/>
</svg>
