<?xml version="1.0" encoding="utf-8"?>
<!-- Generator: Adobe Illustrator 22.1.0, SVG Export Plug-In . SVG Version: 6.00 Build 0)  -->
<svg version="1.1" id="Layer_1" xmlns="http://www.w3.org/2000/svg" xmlns:xlink="http://www.w3.org/1999/xlink" x="0px" y="0px"
	 viewBox="0 0 566.9 566.9" style="enable-background:new 0 0 566.9 566.9;" xml:space="preserve">
<style type="text/css">
	.st0{fill:#313E48;}
</style>
<g>
	<polygon class="st0" points="249.3,457.2 283.5,423.1 319.4,387.1 353.5,353 519.3,187.3 519.3,255.4 387.6,387.1 353.5,421.2 
		317.5,457.2 283.5,491.2 254.9,519.8 248.3,519.8 186.8,519.8 217.5,489 	"/>
	<polygon class="st0" points="385.4,453 419.4,419 519.3,319.2 519.3,387.3 453.5,453 419.4,487.2 386.8,519.8 380.2,519.8 
		318.7,519.8 349.4,489 	"/>
	<polygon class="st0" points="485.5,485 519.3,451.4 519.3,519.5 519,519.8 518.3,519.8 452.1,519.8 450.8,519.8 451.5,519.2 	"/>
	<polygon class="st0" points="47.7,47.2 47.7,115.4 73.7,141.4 121.9,189.6 249.3,317.1 213.4,353 50,189.6 47.7,187.3 47.7,255.4 
		179.3,387.1 147.4,419 47.7,319.2 47.7,387.3 113.4,453 81.4,485 47.7,451.4 47.7,519.5 47.9,519.8 116.1,519.8 115.5,519.2 
		147.5,487.2 181.6,453 213.5,421.2 247.5,387.1 283.5,351.1 317.6,317.1 445.1,189.6 493.3,141.4 519.3,115.4 519.3,47.2 
		471.1,95.4 283.5,283 190.1,189.6 141.9,141.4 95.9,95.4 	"/>
</g>
</svg>